<?xml version="1.0" encoding="UTF-8" standalone="no"?>
<svg width="256px" height="256px" viewBox="0 0 256 256" version="1.1" xmlns="http://www.w3.org/2000/svg" xmlns:xlink="http://www.w3.org/1999/xlink" xmlns:sketch="http://www.bohemiancoding.com/sketch/ns">
    <!-- Generator: Sketch 3.0.1 (7597) - http://www.bohemiancoding.com/sketch -->
    <title>casper</title>
    <description>Created with Sketch.</description>
    <defs>
        <filter x="-50%" y="-50%" width="200%" height="200%" filterUnits="objectBoundingBox" id="filter-1">
            <feOffset dx="0" dy="2" in="SourceAlpha" result="shadowOffsetOuter1"></feOffset>
            <feGaussianBlur stdDeviation="2" in="shadowOffsetOuter1" result="shadowBlurOuter1"></feGaussianBlur>
            <feColorMatrix values="0 0 0 0 0   0 0 0 0 0   0 0 0 0 0  0 0 0 0.35 0" in="shadowBlurOuter1" type="matrix" result="shadowMatrixOuter1"></feColorMatrix>
            <feMerge>
                <feMergeNode in="shadowMatrixOuter1"></feMergeNode>
                <feMergeNode in="SourceGraphic"></feMergeNode>
            </feMerge>
        </filter>
        <radialGradient cx="50%" cy="0%" fx="50%" fy="0%" r="100%" id="radialGradient-2">
            <stop stop-color="#FBFFFE" offset="0%"></stop>
            <stop stop-color="#EBECF1" offset="66.4388931%"></stop>
            <stop stop-color="#E5E5ED" offset="85.2703493%"></stop>
            <stop stop-color="#E3E4ED" offset="85.4117942%"></stop>
            <stop stop-color="#D4D4D7" offset="94.9683242%"></stop>
            <stop stop-color="#E6E6ED" offset="100%"></stop>
        </radialGradient>
        <filter x="-50%" y="-50%" width="200%" height="200%" filterUnits="objectBoundingBox" id="filter-3">
            <feMorphology radius="2" in="SourceAlpha" operator="dilate" result="shadowSpreadInner1"></feMorphology>
            <feOffset dx="0" dy="4" in="shadowSpreadInner1" result="shadowOffsetInner1"></feOffset>
            <feGaussianBlur stdDeviation="1.5" in="shadowOffsetInner1" result="shadowBlurInner1"></feGaussianBlur>
            <feComposite in="shadowBlurInner1" in2="SourceAlpha" operator="arithmetic" k2="-1" k3="1" result="shadowInnerInner1"></feComposite>
            <feColorMatrix values="0 0 0 0 0   0 0 0 0 0   0 0 0 0 0  0 0 0 0.35 0" in="shadowInnerInner1" type="matrix" result="shadowMatrixInner1"></feColorMatrix>
            <feMerge>
                <feMergeNode in="SourceGraphic"></feMergeNode>
                <feMergeNode in="shadowMatrixInner1"></feMergeNode>
            </feMerge>
        </filter>
        <filter x="-50%" y="-50%" width="200%" height="200%" filterUnits="objectBoundingBox" id="filter-4">
            <feGaussianBlur stdDeviation="2.16567096" in="SourceGraphic" result="blur"></feGaussianBlur>
        </filter>
        <filter x="-50%" y="-50%" width="200%" height="200%" filterUnits="objectBoundingBox" id="filter-5">
            <feOffset dx="0" dy="4" in="SourceAlpha" result="shadowOffsetInner1"></feOffset>
            <feGaussianBlur stdDeviation="1.5" in="shadowOffsetInner1" result="shadowBlurInner1"></feGaussianBlur>
            <feComposite in="shadowBlurInner1" in2="SourceAlpha" operator="arithmetic" k2="-1" k3="1" result="shadowInnerInner1"></feComposite>
            <feColorMatrix values="0 0 0 0 0   0 0 0 0 0   0 0 0 0 0  0 0 0 0.35 0" in="shadowInnerInner1" type="matrix" result="shadowMatrixInner1"></feColorMatrix>
            <feMerge>
                <feMergeNode in="SourceGraphic"></feMergeNode>
                <feMergeNode in="shadowMatrixInner1"></feMergeNode>
            </feMerge>
        </filter>
        <radialGradient cx="56.6578984%" cy="50%" fx="56.6578984%" fy="50%" r="50.084471%" id="radialGradient-6">
            <stop stop-color="#FBFFFE" offset="0%"></stop>
            <stop stop-color="#F4F7F8" offset="28.1457941%"></stop>
            <stop stop-color="#C1C1C3" offset="74.9542495%"></stop>
            <stop stop-color="#E6E6ED" offset="100%"></stop>
        </radialGradient>
        <linearGradient x1="50%" y1="0%" x2="50%" y2="100%" id="linearGradient-7">
            <stop stop-color="#5C6270" offset="0%"></stop>
            <stop stop-color="#252423" offset="88.1640625%"></stop>
            <stop stop-color="#000000" offset="100%"></stop>
        </linearGradient>
        <radialGradient cx="52.3729384%" cy="50%" fx="52.3729384%" fy="50%" r="50.0059345%" id="radialGradient-8">
            <stop stop-color="#FBFFFE" offset="0%"></stop>
            <stop stop-color="#E8E8EE" offset="83.923589%"></stop>
            <stop stop-color="#E6E6ED" offset="100%"></stop>
        </radialGradient>
        <filter x="-50%" y="-50%" width="200%" height="200%" filterUnits="objectBoundingBox" id="filter-9">
            <feMorphology radius="2" in="SourceAlpha" operator="dilate" result="shadowSpreadInner1"></feMorphology>
            <feOffset dx="0" dy="4" in="shadowSpreadInner1" result="shadowOffsetInner1"></feOffset>
            <feGaussianBlur stdDeviation="1.5" in="shadowOffsetInner1" result="shadowBlurInner1"></feGaussianBlur>
            <feComposite in="shadowBlurInner1" in2="SourceAlpha" operator="arithmetic" k2="-1" k3="1" result="shadowInnerInner1"></feComposite>
            <feColorMatrix values="0 0 0 0 0   0 0 0 0 0   0 0 0 0 0  0 0 0 0.35 0" in="shadowInnerInner1" type="matrix" result="shadowMatrixInner1"></feColorMatrix>
            <feMerge>
                <feMergeNode in="SourceGraphic"></feMergeNode>
                <feMergeNode in="shadowMatrixInner1"></feMergeNode>
            </feMerge>
        </filter>
        <filter x="-50%" y="-50%" width="200%" height="200%" filterUnits="objectBoundingBox" id="filter-10">
            <feGaussianBlur stdDeviation="2.16567096" in="SourceGraphic" result="blur"></feGaussianBlur>
        </filter>
        <filter x="-50%" y="-50%" width="200%" height="200%" filterUnits="objectBoundingBox" id="filter-11">
            <feOffset dx="0" dy="4" in="SourceAlpha" result="shadowOffsetInner1"></feOffset>
            <feGaussianBlur stdDeviation="1.5" in="shadowOffsetInner1" result="shadowBlurInner1"></feGaussianBlur>
            <feComposite in="shadowBlurInner1" in2="SourceAlpha" operator="arithmetic" k2="-1" k3="1" result="shadowInnerInner1"></feComposite>
            <feColorMatrix values="0 0 0 0 0   0 0 0 0 0   0 0 0 0 0  0 0 0 0.35 0" in="shadowInnerInner1" type="matrix" result="shadowMatrixInner1"></feColorMatrix>
            <feMerge>
                <feMergeNode in="SourceGraphic"></feMergeNode>
                <feMergeNode in="shadowMatrixInner1"></feMergeNode>
            </feMerge>
        </filter>
        <filter x="-50%" y="-50%" width="200%" height="200%" filterUnits="objectBoundingBox" id="filter-12">
            <feOffset dx="0" dy="-1" in="SourceAlpha" result="shadowOffsetInner1"></feOffset>
            <feGaussianBlur stdDeviation="3" in="shadowOffsetInner1" result="shadowBlurInner1"></feGaussianBlur>
            <feComposite in="shadowBlurInner1" in2="SourceAlpha" operator="arithmetic" k2="-1" k3="1" result="shadowInnerInner1"></feComposite>
            <feColorMatrix values="0 0 0 0 0   0 0 0 0 0   0 0 0 0 0  0 0 0 0.35 0" in="shadowInnerInner1" type="matrix" result="shadowMatrixInner1"></feColorMatrix>
            <feMerge>
                <feMergeNode in="SourceGraphic"></feMergeNode>
                <feMergeNode in="shadowMatrixInner1"></feMergeNode>
            </feMerge>
        </filter>
        <filter x="-50%" y="-50%" width="200%" height="200%" filterUnits="objectBoundingBox" id="filter-13">
            <feOffset dx="0" dy="-1" in="SourceAlpha" result="shadowOffsetInner1"></feOffset>
            <feGaussianBlur stdDeviation="3" in="shadowOffsetInner1" result="shadowBlurInner1"></feGaussianBlur>
            <feComposite in="shadowBlurInner1" in2="SourceAlpha" operator="arithmetic" k2="-1" k3="1" result="shadowInnerInner1"></feComposite>
            <feColorMatrix values="0 0 0 0 0   0 0 0 0 0   0 0 0 0 0  0 0 0 0.35 0" in="shadowInnerInner1" type="matrix" result="shadowMatrixInner1"></feColorMatrix>
            <feMerge>
                <feMergeNode in="SourceGraphic"></feMergeNode>
                <feMergeNode in="shadowMatrixInner1"></feMergeNode>
            </feMerge>
            <feGaussianBlur stdDeviation="3.40820313" in="SourceGraphic" result="blur"></feGaussianBlur>
        </filter>
    </defs>
    <g id="Page-1" stroke="none" stroke-width="1" fill="none" fill-rule="evenodd" sketch:type="MSPage">
        <g id="casper" sketch:type="MSArtboardGroup">
            <g id="icon" sketch:type="MSLayerGroup" transform="translate(38.000000, 36.000000)">
                <path d="M90,172 C137.496488,172 178,140.563492 178,95 C178,49.4365081 137.496488,0 90,0 C42.5035115,0 0,49.4365081 0,95 C0,140.563492 42.5035115,172 90,172 Z" id="layer_border" stroke="#5C6270" stroke-width="7" fill="#D8D8D8" filter="url(#filter-1)" sketch:type="MSShapeGroup"></path>
                <path d="M89.5,169 C132.678626,169 175,135.421356 175,94 C175,52.5786438 132.678626,4 89.4999998,4 C46.3213739,4 4.00000001,52.5786438 4.00000001,94 C4.00000001,135.421356 46.3213741,169 89.5,169 Z" id="layer_border-2" fill="url(#radialGradient-2)" sketch:type="MSShapeGroup"></path>
                <g id="left_eye" transform="translate(24.000000, 48.000000)" sketch:type="MSShapeGroup">
                    <ellipse id="eye_socket" stroke="#979797" fill="#D8D8D8" filter="url(#filter-3)" transform="translate(35.000000, 33.000000) rotate(39.000000) translate(-35.000000, -33.000000) " cx="35" cy="33" rx="21" ry="24"></ellipse>
                    <ellipse id="eye_socket-2" stroke="#979797" filter="url(#filter-4)" transform="translate(34.623773, 35.659114) rotate(39.000000) translate(-34.623773, -35.659114) " cx="34.6237726" cy="35.6591143" rx="23.0103716" ry="27.0804335"></ellipse>
                    <path d="M35.7767414,54.7053894 C46.7670225,54.7053894 55.6764061,41.5315365 55.6764061,30.3449659 C55.6764061,19.1583953 46.7670229,10.089888 35.7767418,10.089888 C24.7864607,10.089888 15.8770775,19.1583953 15.8770775,30.3449659 C15.8770775,41.5315365 24.7864603,54.7053894 35.7767414,54.7053894 Z" id="Oval-4" fill="#4A4A4A" filter="url(#filter-5)" transform="translate(35.877077, 32.589888) rotate(39.000000) translate(-35.877077, -32.589888) "></path>
                    <ellipse id="Oval-5" fill="url(#radialGradient-6)" transform="translate(36.958811, 30.540961) rotate(39.000000) translate(-36.958811, -30.540961) " cx="36.9588108" cy="30.5409606" rx="16.6917526" ry="17.0324397"></ellipse>
                    <path d="M38.3615201,39.3170164 C43.0559405,39.3170164 46.8615201,35.9591521 46.8615201,31.8170164 C46.8615201,27.6748808 43.5559405,22.3170164 38.8615201,22.3170164 C34.1670998,22.3170164 29.8615201,27.6748808 29.8615201,31.8170164 C29.8615201,35.9591521 33.6670998,39.3170164 38.3615201,39.3170164 Z" id="Oval-7" stroke="#979797" fill="url(#linearGradient-7)" transform="translate(38.361520, 30.817016) rotate(37.000000) translate(-38.361520, -30.817016) "></path>
                    <circle id="Oval-8" opacity="0.552646922" fill="url(#radialGradient-8)" cx="40.5" cy="34.5" r="2.5"></circle>
                </g>
                <g id="left_eye-2" transform="translate(124.000000, 83.500000) rotate(-75.000000) translate(-124.000000, -83.500000) translate(89.000000, 48.000000)" sketch:type="MSShapeGroup">
                    <ellipse id="eye_socket" stroke="#979797" fill="#D8D8D8" filter="url(#filter-9)" transform="translate(35.000000, 33.000000) rotate(39.000000) translate(-35.000000, -33.000000) " cx="35" cy="33" rx="21" ry="24"></ellipse>
                    <ellipse id="eye_socket-2" stroke="#979797" filter="url(#filter-10)" transform="translate(34.623773, 35.659114) rotate(39.000000) translate(-34.623773, -35.659114) " cx="34.6237726" cy="35.6591143" rx="23.0103716" ry="27.0804335"></ellipse>
                    <path d="M35.7767414,54.7053894 C46.7670225,54.7053894 55.6764061,41.5315365 55.6764061,30.3449659 C55.6764061,19.1583953 46.7670229,10.089888 35.7767418,10.089888 C24.7864607,10.089888 15.8770775,19.1583953 15.8770775,30.3449659 C15.8770775,41.5315365 24.7864603,54.7053894 35.7767414,54.7053894 Z" id="Oval-4" fill="#4A4A4A" filter="url(#filter-11)" transform="translate(35.877077, 32.589888) rotate(39.000000) translate(-35.877077, -32.589888) "></path>
                    <ellipse id="Oval-5" fill="url(#radialGradient-6)" transform="translate(36.958811, 30.540961) rotate(39.000000) translate(-36.958811, -30.540961) " cx="36.9588108" cy="30.5409606" rx="16.6917526" ry="17.0324397"></ellipse>
                    <path d="M38.3615201,39.3170164 C43.0559405,39.3170164 46.8615201,35.9591521 46.8615201,31.8170164 C46.8615201,27.6748808 43.5559405,22.3170164 38.8615201,22.3170164 C34.1670998,22.3170164 29.8615201,27.6748808 29.8615201,31.8170164 C29.8615201,35.9591521 33.6670998,39.3170164 38.3615201,39.3170164 Z" id="Oval-7" stroke="#979797" fill="url(#linearGradient-7)" transform="translate(38.361520, 30.817016) rotate(139.000000) translate(-38.361520, -30.817016) "></path>
                    <circle id="Oval-8" opacity="0.552646922" fill="url(#radialGradient-8)" cx="34.1174566" cy="29.9985403" r="2.5"></circle>
                </g>
                <path d="M98.8384649,171.329797 C104.552675,171.329797 91.4938356,155.022807 91.4938356,137.688447 C91.4938356,120.354087 104.552675,105.304945 98.8384649,105.304945 C93.1242547,105.304945 82.1118929,120.354088 82.1118929,137.688448 C82.1118929,155.022807 93.1242547,171.329797 98.8384649,171.329797 Z" id="Oval-15" stroke="#5C6270" fill="#5C6270" filter="url(#filter-12)" sketch:type="MSShapeGroup" transform="translate(91.111893, 138.301813) rotate(269.000000) translate(-91.111893, -138.301813) "></path>
                <path d="M101.671401,173.52666 C109.047738,173.52666 92.190394,155.984292 92.190394,137.336723 C92.190394,118.689154 109.047738,102.499924 101.671401,102.499924 C94.295063,102.499924 80.0794682,118.689154 80.0794682,137.336723 C80.0794682,155.984292 94.295063,173.52666 101.671401,173.52666 Z" id="Oval-16" stroke="#979797" filter="url(#filter-13)" sketch:type="MSShapeGroup" transform="translate(91.697353, 137.996555) rotate(269.000000) translate(-91.697353, -137.996555) "></path>
            </g>
        </g>
    </g>
</svg>